<?xml version="1.0" standalone="no"?>
<!DOCTYPE svg PUBLIC "-//W3C//DTD SVG 20010904//EN"
 "http://www.w3.org/TR/2001/REC-SVG-20010904/DTD/svg10.dtd">
<svg version="1.0" xmlns="http://www.w3.org/2000/svg"
 width="453.000000pt" height="172.000000pt" viewBox="0 0 453.000000 172.000000"
 preserveAspectRatio="xMidYMid meet">

<g transform="translate(0.000000,172.000000) scale(0.100000,-0.100000)"
fill="#ff0f0f" stroke="#9900e9" stroke-width="15">
<path d="M260 1713 c-229 -38 -334 -211 -199 -327 39 -33 141 -76 181 -76 23
0 23 -5 -2 -44 -29 -48 -52 -144 -44 -191 3 -22 15 -56 25 -76 l18 -37 -60
-22 c-74 -26 -143 -89 -157 -142 -28 -103 50 -188 209 -228 l46 -12 -30 -55
c-35 -65 -47 -159 -27 -218 16 -48 72 -111 124 -137 124 -63 321 -13 448 114
32 32 58 51 58 43 0 -50 51 -95 110 -95 94 0 214 119 244 242 4 19 19 34 46
48 56 29 142 61 147 56 7 -7 -34 -82 -98 -182 -33 -50 -59 -98 -59 -107 0 -14
27 -37 43 -37 3 0 46 48 96 107 84 100 167 180 176 171 2 -2 -21 -39 -51 -82
-58 -86 -98 -178 -89 -206 11 -34 31 -43 68 -31 44 15 147 107 147 132 0 25
-12 24 -36 -2 -24 -27 -72 -52 -84 -44 -25 16 77 175 112 175 11 0 44 7 74 16
43 12 53 19 44 29 -11 13 31 23 168 41 65 8 66 -1 14 -82 l-38 -59 -80 -12
c-59 -10 -84 -18 -97 -34 -27 -33 -16 -44 41 -44 29 1 52 -2 52 -5 0 -13 -56
-57 -88 -70 -60 -24 -111 -110 -64 -110 28 0 100 52 172 124 47 48 72 66 91
66 18 0 33 11 53 38 25 35 26 37 6 40 -25 4 -25 7 -1 40 33 48 71 131 71 156
0 40 -31 50 -134 42 -82 -5 -182 -24 -228 -41 -12 -5 -18 -2 -18 8 0 8 -6 19
-12 25 -22 18 -73 -13 -163 -99 l-86 -83 45 87 c37 70 44 92 36 107 -15 28
-43 32 -91 15 -24 -8 -55 -15 -69 -15 -30 0 -95 -42 -110 -70 -6 -12 -16 -18
-22 -14 -6 4 -7 9 0 13 15 9 -4 48 -33 67 -24 16 -28 16 -70 -1 -57 -21 -134
-79 -174 -129 -26 -32 -31 -35 -31 -18 0 66 -61 108 -143 99 -115 -14 -247
-143 -247 -241 0 -25 6 -38 20 -46 28 -15 59 -3 66 25 8 34 -4 48 -37 43 -34
-5 -35 0 -9 51 40 80 149 150 231 151 139 0 132 -157 -14 -297 -89 -85 -151
-115 -254 -121 -70 -4 -88 -1 -128 18 -53 26 -80 63 -89 124 -8 54 16 144 57
212 30 51 34 54 73 54 114 0 345 62 451 121 l53 29 16 -25 c9 -13 18 -42 21
-65 3 -22 10 -40 14 -40 16 0 9 53 -11 99 l-20 43 25 30 c54 65 20 102 -99
106 -64 2 -92 8 -136 30 -67 33 -68 34 -52 39 7 3 35 22 62 44 27 21 52 34 55
29 10 -16 42 3 124 78 79 71 80 72 135 72 60 0 63 -2 41 -40 -20 -36 -19 -77
3 -89 24 -13 93 20 122 56 29 37 25 46 -11 28 -39 -21 -45 -15 -24 24 11 22
23 31 40 31 15 0 33 12 49 33 31 41 32 47 6 47 -28 0 -25 12 20 89 40 67 47
94 32 118 -11 17 -128 -55 -234 -144 -53 -44 -82 -62 -87 -55 -11 18 -67 3
-96 -26 -31 -30 -33 -62 -5 -62 11 0 20 -4 20 -8 0 -14 -35 -42 -53 -42 -13 0
-14 5 -6 32 21 76 3 155 -43 179 -12 7 -45 12 -73 12 -68 0 -139 -37 -203
-108 -52 -56 -67 -94 -60 -151 3 -26 7 -29 37 -29 41 0 62 25 45 53 -6 9 -23
17 -38 17 -33 -1 -33 12 -1 60 72 105 202 168 272 131 60 -30 65 -113 13 -198
-25 -42 -115 -133 -155 -158 -30 -19 -31 -19 -90 1 -40 14 -98 23 -173 26
-111 6 -114 6 -124 32 -22 57 13 188 72 272 20 27 26 29 83 29 111 1 326 60
425 117 54 30 66 22 83 -53 7 -30 16 -54 21 -54 15 0 8 50 -13 101 l-22 50 20
22 c32 35 37 63 15 85 -22 22 -105 37 -150 27 -22 -4 -48 4 -108 33 -153 76
-308 106 -434 85z m226 -44 c66 -11 137 -33 204 -61 l44 -19 -104 -35 c-130
-43 -224 -98 -301 -175 l-59 -59 -47 11 c-70 15 -124 42 -158 78 -25 27 -30
41 -30 81 0 42 5 54 35 85 85 89 243 125 416 94z m434 -102 c33 -17 36 -39 8
-71 l-23 -26 -51 50 c-28 27 -49 52 -46 55 10 10 87 5 112 -8z m-109 -33 c44
-32 77 -70 67 -79 -13 -12 -125 -62 -180 -81 -103 -35 -318 -72 -318 -55 0 12
104 107 150 138 64 43 191 105 229 112 2 1 25 -15 52 -35z m385 -248 c-32 -51
-39 -56 -71 -56 -23 0 -34 4 -30 10 9 15 129 109 133 105 2 -2 -12 -28 -32
-59z m-666 -368 l55 -11 -45 -14 c-54 -17 -144 -12 -189 11 -50 26 -29 39 53
32 39 -4 96 -12 126 -18z m-222 -13 c21 -13 62 -29 91 -35 51 -9 69 -8 202 16
26 4 50 0 88 -16 29 -13 48 -26 44 -29 -4 -4 -42 -18 -83 -30 -133 -41 -274
-127 -335 -204 l-28 -34 -52 12 c-123 28 -187 82 -189 159 -1 51 21 87 75 123
31 20 123 60 147 63 1 0 19 -11 40 -25z m633 -85 c24 -13 24 -41 0 -71 l-19
-24 -53 49 c-30 28 -56 51 -58 53 -11 8 113 2 130 -7z m-114 -30 c22 -17 48
-41 56 -54 16 -23 15 -24 -41 -54 -98 -52 -323 -112 -419 -112 l-34 0 20 29
c53 75 287 217 362 220 8 1 33 -13 56 -29z m319 -285 c16 -40 -51 -153 -123
-209 -56 -43 -106 -47 -111 -9 -4 27 37 125 51 120 6 -2 28 16 49 39 57 61
122 91 134 59z"/>
<path d="M1835 1427 c-41 -15 -74 -21 -105 -18 -92 10 -276 5 -319 -8 -54 -16
-101 -60 -101 -95 0 -25 2 -26 63 -26 34 0 69 5 77 10 13 9 13 10 0 10 -8 1
-4 6 9 11 43 17 43 5 1 -48 -26 -34 -51 -54 -70 -58 -38 -8 -75 -52 -59 -71 9
-11 4 -25 -20 -62 -17 -27 -31 -57 -31 -66 0 -28 41 -15 65 19 11 17 27 40 36
53 l17 23 137 -65 c76 -36 141 -63 146 -60 5 3 9 23 9 44 0 48 -19 64 -123
105 -43 17 -77 33 -77 36 0 3 29 9 64 13 101 10 160 32 195 71 17 20 31 42 31
50 0 15 98 71 107 61 11 -11 -22 -70 -93 -168 -72 -98 -73 -100 -60 -131 7
-18 19 -33 28 -35 9 -2 46 38 95 105 81 108 183 217 183 196 0 -11 -71 -119
-132 -200 -27 -37 -30 -46 -22 -75 5 -18 16 -34 25 -36 8 -1 54 42 108 102 51
58 104 113 119 122 25 16 24 14 -7 -21 -40 -45 -70 -109 -71 -146 0 -37 30
-71 63 -71 30 0 98 37 143 79 l30 28 16 -37 c26 -61 92 -75 173 -37 109 51
206 235 162 303 -9 14 -13 26 -8 28 14 5 -7 46 -33 63 -33 22 -86 6 -160 -49
-72 -55 -126 -125 -141 -184 -10 -40 -20 -53 -65 -84 -29 -21 -62 -38 -73 -38
-46 0 10 115 114 233 58 66 58 69 43 92 -9 14 -25 25 -35 25 -10 0 -62 -36
-114 -80 l-95 -80 30 53 c34 60 37 88 15 107 -22 19 -72 -7 -143 -73 -31 -29
-52 -43 -47 -32 17 41 17 85 1 110 -20 30 -24 30 -101 2z m-165 -131 l0 -34
-82 -20 c-46 -11 -85 -18 -87 -16 -1 1 8 18 22 36 13 18 27 41 30 51 5 13 18
17 62 17 l55 0 0 -34z m927 9 c8 -23 -23 -97 -60 -144 -71 -90 -167 -130 -175
-74 -4 27 37 125 51 120 6 -2 29 17 51 41 57 62 120 89 133 57z"/>
<path d="M3459 765 c-56 -30 -45 -76 13 -55 27 9 40 9 67 -3 42 -18 83 -7 99
27 13 30 -3 50 -29 36 -11 -7 -27 -6 -44 0 -36 14 -75 12 -106 -5z"/>
<path d="M2305 660 c-108 -13 -192 -58 -220 -117 -29 -62 6 -107 90 -115 28
-3 25 -5 -35 -34 -101 -48 -141 -99 -126 -159 9 -34 62 -65 111 -65 144 1 283
84 273 164 l-3 25 -58 -38 c-70 -46 -125 -63 -192 -59 -37 2 -51 7 -53 20 -5
28 92 85 183 107 72 18 105 38 105 63 0 14 -20 18 -130 26 -58 4 -105 11 -105
17 0 17 107 64 160 71 49 7 50 7 32 -13 -28 -32 -9 -34 47 -6 56 28 66 38 66
69 0 41 -46 55 -145 44z"/>
<path d="M3931 659 c-121 -15 -221 -85 -221 -154 0 -42 38 -75 86 -75 45 0 43
-14 -4 -28 -21 -7 -58 -26 -81 -43 -87 -63 -88 -154 -1 -180 82 -25 264 26
299 83 14 23 32 98 24 98 -2 0 -19 -11 -36 -24 -62 -46 -120 -69 -189 -74 -57
-4 -69 -2 -74 12 -14 37 77 95 184 117 64 13 99 37 89 62 -5 14 -88 27 -173
27 -53 0 -62 13 -27 38 29 21 123 52 155 52 16 0 17 -3 8 -21 -7 -11 -10 -22
-8 -25 2 -2 29 9 59 24 49 26 54 32 57 65 2 24 -1 39 -10 41 -33 11 -78 12
-137 5z"/>
<path d="M2722 619 c-114 -57 -254 -221 -284 -332 -36 -139 87 -210 230 -132
75 41 172 132 172 162 0 24 -2 23 -51 -20 -172 -150 -315 -125 -239 42 30 65
117 169 183 218 66 48 77 51 77 25 0 -30 -55 -98 -96 -118 -54 -27 -98 -86
-90 -118 9 -37 38 -33 99 11 58 43 132 139 146 190 10 37 0 81 -22 95 -24 15
-65 7 -125 -23z"/>
<path d="M3139 623 c-73 -36 -224 -188 -263 -265 -48 -98 -37 -190 27 -221 29
-15 29 -15 8 -26 -25 -14 -28 -41 -5 -41 24 0 0 -26 -31 -34 -14 -4 -25 -11
-25 -17 0 -37 103 -12 124 30 13 25 13 31 0 50 -14 20 -14 21 9 21 41 0 141
58 210 120 l65 60 12 -31 c25 -59 97 -75 175 -38 109 51 206 235 162 303 -9
14 -12 26 -7 28 15 5 -13 51 -42 67 -24 14 -30 13 -89 -17 -100 -49 -209 -174
-209 -238 0 -25 -79 -101 -147 -141 -155 -91 -226 -4 -125 153 46 70 150 176
195 197 37 18 41 16 33 -17 -9 -35 -52 -83 -93 -103 -35 -16 -93 -84 -93 -108
0 -21 28 -38 52 -31 34 8 120 87 163 150 30 44 38 66 39 102 2 78 -48 94 -145
47z m418 -119 c16 -42 -62 -167 -135 -217 -49 -34 -95 -34 -100 0 -4 27 37
125 51 120 6 -2 28 16 49 39 37 40 89 73 116 74 7 0 15 -7 19 -16z"/>
<path d="M4311 600 c-102 -21 -149 -60 -165 -137 -10 -43 16 -68 91 -88 150
-40 171 -56 103 -81 -42 -15 -190 -18 -190 -4 0 20 -51 9 -76 -15 -62 -62 1
-101 146 -92 105 7 172 30 205 69 35 42 33 79 -8 115 -29 25 -67 40 -195 79
-18 5 -7 21 29 39 29 15 159 37 159 26 0 -2 -7 -12 -16 -22 -26 -28 -2 -28 63
2 70 32 90 66 59 97 -19 20 -135 26 -205 12z"/>
</g>
</svg>
